<?xml version="1.0" encoding="UTF-8" standalone="no"?>
<!-- Created with Inkscape (http://www.inkscape.org/) -->

<svg
   xmlns:dc="http://purl.org/dc/elements/1.1/"
   xmlns:cc="http://creativecommons.org/ns#"
   xmlns:rdf="http://www.w3.org/1999/02/22-rdf-syntax-ns#"
   xmlns:svg="http://www.w3.org/2000/svg"
   xmlns="http://www.w3.org/2000/svg"
   xmlns:sodipodi="http://sodipodi.sourceforge.net/DTD/sodipodi-0.dtd"
   xmlns:inkscape="http://www.inkscape.org/namespaces/inkscape"
   width="60.586758mm"
   height="53.475174mm"
   viewBox="0 0 60.586758 53.475174"
   version="1.1"
   id="svg1025"
   inkscape:version="0.92.4 (5da689c313, 2019-01-14)"
   sodipodi:docname="izzydevlogo.svg">
  <defs
     id="defs1019" />
  <sodipodi:namedview
     id="base"
     pagecolor="#ffffff"
     bordercolor="#666666"
     borderopacity="1.0"
     inkscape:pageopacity="0.0"
     inkscape:pageshadow="2"
     inkscape:zoom="1.4"
     inkscape:cx="154.50192"
     inkscape:cy="84.895628"
     inkscape:document-units="mm"
     inkscape:current-layer="layer1"
     showgrid="false"
     units="mm"
     inkscape:window-width="1366"
     inkscape:window-height="705"
     inkscape:window-x="1912"
     inkscape:window-y="108"
     inkscape:window-maximized="1"
     fit-margin-top="0"
     fit-margin-left="0"
     fit-margin-right="0"
     fit-margin-bottom="0" />
  <metadata
     id="metadata1022">
    <rdf:RDF>
      <cc:Work
         rdf:about="">
        <dc:format>image/svg+xml</dc:format>
        <dc:type
           rdf:resource="http://purl.org/dc/dcmitype/StillImage" />
        <dc:title />
      </cc:Work>
    </rdf:RDF>
  </metadata>
  <g
     inkscape:label="Layer 1"
     inkscape:groupmode="layer"
     id="layer1"
     transform="translate(-82.108553,-86.447605)">
    <path
       inkscape:connector-curvature="0"
       id="path859"
       style="font-style:normal;font-variant:normal;font-weight:normal;font-stretch:normal;font-size:40px;line-height:1.25;font-family:'League Gothic';-inkscape-font-specification:'League Gothic';letter-spacing:0px;word-spacing:0px;fill:#094067;fill-opacity:1;stroke:none;stroke-width:0.26458335"
       d="m 84.256952,103.0475 q 0,-1.87986 0.402826,-3.054784 0.402826,-1.208479 1.242046,-1.879833 0.87279,-0.671388 2.215543,-0.90636 1.376324,-0.235034 3.323316,-0.201412 v 2.819782 q -1.074201,0 -1.846285,0.134164 -0.738514,0.100863 -1.208479,0.469973 -0.906359,0.70495 -0.906359,2.61837 v 6.51235 q 0,1.34277 -0.570671,2.18198 -0.537101,0.8392 -1.510598,1.44344 0.973497,0.63783 1.510598,1.47705 0.570671,0.83921 0.570671,2.14839 v 6.51238 q 0,1.91342 0.906359,2.61836 0.469965,0.36927 1.208479,0.46997 0.772084,0.13423 1.846285,0.13423 v 2.81979 q -1.946992,0.0337 -3.323316,-0.20142 -1.342753,-0.23504 -2.215543,-0.90636 -0.83922,-0.67139 -1.242046,-1.87987 -0.402826,-1.17489 -0.402826,-3.05475 v -6.51237 q 0,-0.16779 -0.100702,-0.50353 -0.06715,-0.36924 -0.302119,-0.77206 -0.234972,-0.36926 -0.671377,-0.67138 -0.402827,-0.30196 -1.074201,-0.33568 v -2.68552 q 0.671374,0 1.074201,-0.26866 0.436395,-0.30196 0.671377,-0.70494 0.234971,-0.36925 0.302119,-0.7385 0.100702,-0.40284 0.100702,-0.5707 z" />
    <path
       inkscape:connector-curvature="0"
       id="path861"
       style="font-style:normal;font-variant:normal;font-weight:normal;font-stretch:normal;font-size:40px;line-height:1.25;font-family:'League Gothic';-inkscape-font-specification:'League Gothic';letter-spacing:0px;word-spacing:0px;fill:#094067;fill-opacity:1;stroke:none;stroke-width:0.26458335"
       d="m 95.040031,89.838068 v -3.390463 h 3.390454 v 3.390463 z m 3.390454,21.282642 H 95.040031 V 92.758561 h 3.390454 z" />
    <path
       inkscape:connector-curvature="0"
       id="path863"
       style="font-style:normal;font-variant:normal;font-weight:normal;font-stretch:normal;font-size:40px;line-height:1.25;font-family:'League Gothic';-inkscape-font-specification:'League Gothic';letter-spacing:0px;word-spacing:0px;fill:#094067;fill-opacity:1;stroke:none;stroke-width:0.26458335"
       d="m 100.13044,111.12071 v -3.89397 l 5.67313,-17.187258 h -4.86748 v -3.591877 h 8.79503 v 3.591877 l -5.77384,17.489378 h 5.77384 v 3.59185 z" />
    <path
       inkscape:connector-curvature="0"
       id="path865"
       style="font-style:normal;font-variant:normal;font-weight:normal;font-stretch:normal;font-size:40px;line-height:1.25;font-family:'League Gothic';-inkscape-font-specification:'League Gothic';letter-spacing:0px;word-spacing:0px;fill:#094067;fill-opacity:1;stroke:none;stroke-width:0.26458335"
       d="m 110.42401,111.12071 v -3.89397 l 5.67313,-17.187258 h -4.86748 v -3.591877 h 8.79503 v 3.591877 l -5.77384,17.489378 h 5.77384 v 3.59185 z" />
    <path
       inkscape:connector-curvature="0"
       id="path867"
       style="font-style:normal;font-variant:normal;font-weight:normal;font-stretch:normal;font-size:40px;line-height:1.25;font-family:'League Gothic';-inkscape-font-specification:'League Gothic';letter-spacing:0px;word-spacing:0px;fill:#094067;fill-opacity:1;stroke:none;stroke-width:0.26458335"
       d="m 120.91899,117.63307 v -3.0212 q 0.0335,0.0337 0.20142,0.0337 0.13422,0.0337 0.6378,0 0.50354,0 0.90636,-0.30197 0.80565,-0.60424 1.10777,-1.67842 0.13422,-0.43641 0.13422,-1.00706 l -3.1219,-18.899277 h 3.32332 l 1.34275,11.279127 0.0672,0.93992 h 0.13422 l 0.0672,-0.93992 1.34276,-11.279127 h 3.32332 l -3.25618,19.738477 q -0.13422,0.97352 -0.50354,1.87988 -0.36924,0.9399 -0.97348,1.67841 -0.60424,0.73853 -1.4099,1.17492 -0.80565,0.46997 -1.81272,0.46997 h -0.40282 q -0.23497,0 -0.5371,-0.0337 -0.26858,0 -0.57068,-0.0337 z" />
    <path
       inkscape:connector-curvature="0"
       id="path869"
       style="font-style:normal;font-variant:normal;font-weight:normal;font-stretch:normal;font-size:40px;line-height:1.25;font-family:'League Gothic';-inkscape-font-specification:'League Gothic';letter-spacing:0px;word-spacing:0px;fill:#094067;fill-opacity:1;stroke:none;stroke-width:0.26458335"
       d="m 107.11512,127.33446 q 0,3.62544 -0.20141,6.00881 -0.16786,2.34984 -0.87279,3.75973 -0.73852,1.4099 -2.18198,1.98054 -1.44346,0.57068 -3.961121,0.57068 h -2.853351 v -24.6731 h 2.853353 q 2.517669,0 3.961129,0.57068 1.44346,0.57064 2.18197,1.98054 0.70495,1.40989 0.87279,3.79328 0.20141,2.38341 0.20141,6.00884 z m -6.44522,-8.7279 v 17.42222 q 0.93993,0 1.47703,-0.2014 0.57067,-0.23504 0.83922,-1.14133 0.13427,-0.43643 0.20142,-1.07421 0.1007,-0.6714 0.13426,-1.54417 0.0336,-0.87279 0.0336,-2.04771 0,-1.20849 0,-2.71909 0,-1.5106 0,-2.68549 0,-1.20847 -0.0336,-2.08128 -0.0336,-0.8728 -0.13426,-1.5106 -0.0672,-0.67138 -0.20142,-1.10776 -0.26856,-0.8728 -0.83922,-1.07422 -0.5371,-0.23503 -1.47703,-0.23503 z" />
    <path
       inkscape:connector-curvature="0"
       id="path871"
       style="font-style:normal;font-variant:normal;font-weight:normal;font-stretch:normal;font-size:40px;line-height:1.25;font-family:'League Gothic';-inkscape-font-specification:'League Gothic';letter-spacing:0px;word-spacing:0px;fill:#094067;fill-opacity:1;stroke:none;stroke-width:0.26458335"
       d="m 114.83911,133.07474 h 3.15546 v 2.11484 q -0.0672,1.34274 -0.50352,2.31625 -0.4364,0.93991 -1.34276,1.67842 -0.87279,0.73853 -2.55124,0.73853 -1.64487,0 -2.55122,-0.73853 -0.8728,-0.77206 -1.27562,-1.67842 -0.23497,-0.53713 -0.36926,-1.14137 -0.13422,-0.60424 -0.16786,-1.27559 v -9.23145 q 0.13422,-2.65192 1.87986,-4.09541 0.83922,-0.73851 2.51766,-0.73851 1.64488,0 2.51768,0.7721 0.90634,0.7385 1.30918,1.61131 0.23496,0.53709 0.36926,1.10777 0.13422,0.57065 0.16785,1.24204 v 5.33744 h -5.606 v 3.99471 q 0.0335,0.97347 0.5371,1.57771 0.26856,0.26866 0.70495,0.26866 0.46996,0 0.70494,-0.26866 0.26857,-0.26865 0.36926,-0.6378 0.13422,-0.36926 0.13422,-0.93991 z m -2.45054,-7.21732 v 2.58482 h 2.45054 v -2.58482 q 0,-1.04062 -0.46997,-1.6113 -0.26857,-0.26866 -0.73851,-0.26866 -0.46997,0 -0.70495,0.30196 -0.23498,0.26866 -0.36926,0.63783 -0.0672,0.20141 -0.1007,0.43639 -0.0335,0.23504 -0.0672,0.50352 z" />
    <path
       inkscape:connector-curvature="0"
       id="path873"
       style="font-style:normal;font-variant:normal;font-weight:normal;font-stretch:normal;font-size:40px;line-height:1.25;font-family:'League Gothic';-inkscape-font-specification:'League Gothic';letter-spacing:0px;word-spacing:0px;fill:#094067;fill-opacity:1;stroke:none;stroke-width:0.26458335"
       d="m 125.39336,139.65422 h -3.35689 l -2.98762,-18.36215 h 3.28974 l 1.10778,10.64131 0.13422,1.17492 h 0.26855 l 0.13423,-1.17492 1.10777,-10.64131 h 3.28975 z" />
    <path
       inkscape:connector-curvature="0"
       id="path875"
       style="font-style:normal;font-variant:normal;font-weight:normal;font-stretch:normal;font-size:40px;line-height:1.25;font-family:'League Gothic';-inkscape-font-specification:'League Gothic';letter-spacing:0px;word-spacing:0px;fill:#094067;fill-opacity:1;stroke:none;stroke-width:0.26458335"
       d="m 140.54686,103.04719 v 6.51236 q 0,0.16779 0.0672,0.57069 0.10085,0.36923 0.33569,0.7385 0.23504,0.40282 0.6378,0.70494 0.43641,0.26866 1.10776,0.26866 v 2.68549 q -0.67135,0.0337 -1.10776,0.33571 -0.40284,0.30196 -0.6378,0.67135 -0.23504,0.40282 -0.33569,0.7721 -0.0672,0.33564 -0.0672,0.50352 v 6.51237 q 0,3.65899 -1.6113,4.93463 -0.83923,0.67135 -2.24912,0.90636 -1.37627,0.23503 -3.32332,0.20141 v -2.81979 q 1.07425,0 1.81275,-0.13422 0.77207,-0.10085 1.24204,-0.46992 0.90636,-0.70494 0.90636,-2.61836 v -6.51238 q 0,-1.30918 0.53709,-2.14841 0.57068,-0.83923 1.54413,-1.47701 -0.97345,-0.60424 -1.54413,-1.44346 -0.53709,-0.83924 -0.53709,-2.18198 v -6.51237 q 0,-1.91342 -0.90636,-2.61837 -0.46997,-0.36923 -1.24204,-0.469942 -0.7385,-0.134163 -1.81275,-0.134163 v -2.819783 q 1.94705,-0.03362 3.32332,0.201412 1.40989,0.235036 2.24912,0.90636 1.6113,1.275626 1.6113,4.934616 z" />
  </g>
</svg>
